<svg width="74" height="74" viewBox="0 0 74 74" fill="none" xmlns="http://www.w3.org/2000/svg"><path d="M58.9618 50.5513C57.1989 51.0786 55.4684 51.9944 53.7272 53.7272L53.7249 53.7293C51.4585 56.0131 50.5673 58.2817 50.1735 60.6237C49.786 62.9644 49.9776 65.3611 50.0185 67.6546C50.0227 68.0377 50.025 68.4209 50.0164 68.8007L68.8003 50.0143C68.204 50.0284 67.6036 50.0197 66.9966 50.0046C64.3557 49.9259 61.5985 49.7645 58.9618 50.5513Z" fill="#05408C" stroke="#05408C" stroke-width="0.5"></path><path d="M37.001 1C17.1171 1 1 17.1163 1 36.9983C1 56.8826 17.1171 73 37.001 73C39.9777 73 42.8598 72.6147 45.6277 71.9324C45.9829 71.5396 46.2089 71.0543 46.3553 70.2707C46.5038 69.4496 46.5168 68.3551 46.4802 67.0915C46.42 64.5625 46.1703 61.3575 47.169 57.9609C47.8341 55.6988 49.0868 53.3741 51.2327 51.2357C51.2327 51.2357 51.2327 51.2346 51.235 51.2334C54.0396 48.4116 57.1713 47.1557 60.0533 46.694C62.9397 46.2258 65.5978 46.4669 67.7094 46.4926C69.115 46.5206 70.2599 46.4345 71.0026 46.1688C71.3942 46.0298 71.6763 45.8556 71.9324 45.622C72.6147 42.8573 73 39.974 73 36.9983C72.9997 17.1163 56.8826 1 37.001 1ZM23.2697 42.4548L18.1383 43.602C18.0608 43.6192 18.0307 43.6666 18.049 43.7463L19.2145 48.9551C19.2403 49.0714 19.178 49.1683 19.0617 49.1941L17.1493 49.6224C17.033 49.6481 16.9361 49.587 16.9104 49.4707L14.0283 36.5926C14.0026 36.4753 14.0649 36.3796 14.1812 36.3537L22.4926 34.494C22.6099 34.4681 22.7058 34.5285 22.7327 34.6458L23.1071 36.3236C23.134 36.4409 23.0728 36.5356 22.9554 36.5625L16.8685 37.9241C16.791 37.9412 16.7608 37.9896 16.7781 38.0682L17.5335 41.4433C17.5507 41.5207 17.598 41.551 17.6755 41.5335L22.8069 40.3863C22.9242 40.3594 23.0211 40.4209 23.0468 40.5371L23.4224 42.2149C23.4484 42.3322 23.387 42.4279 23.2697 42.4548ZM37.9877 44.9591L35.8224 45.4445C35.6663 45.4788 35.5749 45.4381 35.4866 45.3143L31.7931 40.7113L29.5094 41.2215C29.4319 41.2388 29.4016 41.2872 29.4189 41.3658L30.55 46.4186C30.5759 46.5359 30.5145 46.6317 30.3982 46.6576L28.4859 47.0858C28.3685 47.1117 28.2727 47.0503 28.247 46.934L25.3649 34.0561C25.339 33.9398 25.4005 33.8429 25.5177 33.8172L30.6491 32.6699C33.0878 32.1232 35.2456 33.3414 35.7686 35.6823C36.1571 37.4192 35.4628 38.9885 34.0681 39.8957L38.0683 44.6752C38.176 44.7944 38.1244 44.929 37.9877 44.9591ZM48.8746 42.5237L40.5631 44.3833C40.447 44.4092 40.3511 44.3489 40.3253 44.2316L37.4444 31.3535C37.4175 31.2363 37.4788 31.1416 37.5951 31.1157L45.9066 29.2561C46.0239 29.2292 46.1196 29.2905 46.1465 29.4067L46.521 31.0856C46.548 31.2018 46.4865 31.2966 46.3692 31.3234L40.2822 32.6847C40.2047 32.703 40.1746 32.7504 40.1918 32.829L40.9171 36.0674C40.9342 36.146 40.9816 36.1761 41.0591 36.1588L46.1905 35.0104C46.3078 34.9847 46.4036 35.0449 46.4304 35.1621L46.8049 36.84C46.8319 36.9572 46.7704 37.053 46.6532 37.0789L41.5218 38.2271C41.4443 38.2444 41.4142 38.2918 41.4314 38.3703L42.1826 41.7259C42.1997 41.8035 42.2471 41.8348 42.3246 41.8175L48.4115 40.4549C48.5288 40.4291 48.6257 40.4894 48.6516 40.6067L49.0272 42.2845C49.0532 42.4011 48.9919 42.4978 48.8746 42.5237ZM59.997 40.0354L51.6855 41.8951C51.5683 41.921 51.4725 41.8606 51.4466 41.7434L48.5657 28.8653C48.5388 28.748 48.6001 28.6532 48.7174 28.6264L57.0289 26.7678C57.1461 26.741 57.2409 26.8012 57.2678 26.9184L57.6423 28.5963C57.6691 28.7135 57.6088 28.8083 57.4917 28.8352L51.4046 30.1965C51.3261 30.2138 51.2959 30.2621 51.3132 30.3407L52.0385 33.5791C52.0557 33.6577 52.1031 33.6878 52.1817 33.6705L57.3131 32.5221C57.4303 32.4953 57.5251 32.5566 57.552 32.6739L57.9265 34.3507C57.9533 34.4691 57.893 34.5638 57.7757 34.5906L52.6445 35.739C52.5659 35.7563 52.5358 35.8037 52.5531 35.881L53.3043 39.2367C53.3214 39.3151 53.369 39.3465 53.4474 39.3281L59.5344 37.9667C59.6516 37.9408 59.7476 38.0011 59.7733 38.1184L60.1489 39.7962C60.1748 39.9127 60.1144 40.0096 59.997 40.0354Z" fill="#05408C" stroke="#05408C" stroke-width="0.5"></path><path d="M31.0333 34.7545L28.2039 35.3884C28.1264 35.4056 28.0963 35.453 28.1136 35.5316L28.9035 39.0627C28.9218 39.1412 28.9692 39.1703 29.0467 39.153L31.876 38.5202C33.0868 38.25 33.74 37.3256 33.486 36.1934C33.2287 35.0418 32.2439 34.4843 31.0333 34.7545Z" fill="#05408C" stroke="#05408C" stroke-width="0.5"></path></svg>
