<svg width="73" height="72" viewBox="0 0 73 72" fill="none" xmlns="http://www.w3.org/2000/svg"><path d="M64.0815 8.41873C67.3062 11.6437 67.3062 16.8725 64.0815 20.0974L62.5947 21.5841C62.1618 21.4904 61.6167 21.3477 60.9954 21.1321C59.3325 20.5552 57.147 19.4648 55.0911 17.409C53.0352 15.3532 51.945 13.1677 51.3681 11.5047C51.1524 10.8834 51.0099 10.3383 50.916 9.90538L52.4028 8.41873C55.6278 5.19376 60.8565 5.19376 64.0815 8.41873Z" fill="#05408C"></path><path d="M44.2403 39.9384C43.0283 41.1504 42.4223 41.7564 41.7539 42.2778C40.9658 42.8925 40.1129 43.4196 39.2105 43.8498C38.4455 44.2143 37.6325 44.4852 36.0062 45.0273L27.4313 47.8857C26.6311 48.1524 25.7488 47.9442 25.1523 47.3478C24.5559 46.7511 24.3476 45.8691 24.6143 45.0687L27.4727 36.4938C28.0147 34.8675 28.2857 34.0545 28.6503 33.2895C29.0804 32.3871 29.6075 31.5342 30.2223 30.7461C30.7436 30.0777 31.3496 29.4719 32.5616 28.2598L47.3099 13.5116C48.101 15.5942 49.4879 18.1699 51.9089 20.591C54.3302 23.0121 56.906 24.3989 58.9886 25.1903L44.2403 39.9384Z" fill="#05408C"></path><path d="M62.1065 61.6065C66.5 57.2133 66.5 50.142 66.5 36C66.5 31.3551 66.5 27.4732 66.3443 24.1983L47.258 43.2849C46.2041 44.3391 45.4124 45.1311 44.5214 45.8259C43.4756 46.6419 42.344 47.3412 41.1464 47.9118C40.1264 48.3981 39.0638 48.7518 37.6499 49.2228L28.8543 52.1547C26.437 52.9605 23.772 52.3314 21.9703 50.5296C20.1686 48.7281 19.5395 46.0629 20.3453 43.6458L23.277 34.8501C23.7481 33.4362 24.102 32.3736 24.588 31.3536C25.1587 30.156 25.8582 29.0244 26.674 27.9784C27.3689 27.0875 28.161 26.2958 29.2152 25.2421L48.3017 6.15564C45.0269 6 41.1449 6 36.5 6C22.3578 6 15.2868 6 10.8934 10.3934C6.5 14.7868 6.5 21.8578 6.5 36C6.5 50.142 6.5 57.2133 10.8934 61.6065C15.2868 66 22.3578 66 36.5 66C50.642 66 57.7133 66 62.1065 61.6065Z" fill="#05408C"></path></svg>
