<svg width="73" height="72" viewBox="0 0 73 72" fill="none" xmlns="http://www.w3.org/2000/svg"><path fill-rule="evenodd" clip-rule="evenodd" d="M10.8934 10.3934C6.5 14.7868 6.5 21.8578 6.5 36C6.5 50.142 6.5 57.2133 10.8934 61.6065C15.2868 66 22.3578 66 36.5 66C50.642 66 57.7133 66 62.1065 61.6065C66.5 57.2133 66.5 50.142 66.5 36C66.5 21.8578 66.5 14.7868 62.1065 10.3934C57.7133 6 50.642 6 36.5 6C22.3578 6 15.2868 6 10.8934 10.3934ZM45.5 36C47.1569 36 48.5 33.9852 48.5 31.5C48.5 29.0147 47.1569 27 45.5 27C43.8431 27 42.5 29.0147 42.5 31.5C42.5 33.9852 43.8431 36 45.5 36ZM30.5 31.5C30.5 33.9852 29.1568 36 27.5 36C25.8432 36 24.5 33.9852 24.5 31.5C24.5 29.0147 25.8432 27 27.5 27C29.1568 27 30.5 29.0147 30.5 31.5ZM25.6924 46.6602C26.4324 45.6618 27.8415 45.4524 28.8398 46.1925C31.025 47.8119 33.6623 48.75 36.5 48.75C39.3377 48.75 41.975 47.8119 44.1602 46.1925C45.1586 45.4524 46.5677 45.6618 47.3075 46.6602C48.0476 47.6586 47.8382 49.0677 46.8398 49.8075C43.9226 51.9699 40.355 53.25 36.5 53.25C32.645 53.25 29.0774 51.9699 26.1602 49.8075C25.1619 49.0677 24.9525 47.6586 25.6924 46.6602Z" fill="#05408C"></path></svg>
