<svg width="72" height="46" viewBox="0 0 72 46" fill="none" xmlns="http://www.w3.org/2000/svg"><path d="M16.0457 34.1645C15.6408 33.9016 15.2242 33.4533 14.8709 32.8728C14.5232 32.2933 14.2506 31.5806 14.2495 30.8056C14.2475 30.222 14.4144 29.6037 14.8178 29.0457C15.2451 28.4575 15.9134 27.8612 16.6226 27.3828C17.3394 26.9116 18.0527 26.5455 18.7414 26.5302C18.7593 26.5302 18.7873 26.5302 18.8119 26.5322C19.5598 26.5716 20.367 26.9126 21.0323 27.4946C21.6914 28.0741 22.206 28.9308 22.2055 29.9729C22.206 31.0312 21.6735 32.2014 20.4369 33.3905C19.8207 33.9782 18.8747 34.6562 17.6907 34.6649H17.6825C17.1566 34.6751 16.5899 34.5219 16.0487 34.1747L16.0457 34.1645Z" fill="#05408C"></path><path d="M22.2801 39.4641C21.236 39.456 20.243 38.9005 19.4812 38.1387C18.7261 37.3719 18.1778 36.3783 18.1712 35.3419C18.1691 34.7874 18.3468 34.2187 18.7425 33.751C19.7268 32.59 21.1972 31.4433 22.3158 31.0415C22.6549 30.9246 23.0332 30.8786 23.4309 30.8771C24.4796 30.8919 25.6692 31.1799 26.3773 31.9355C26.9001 32.5318 27.5378 33.4973 27.5511 34.6164C27.5552 35.1688 27.3668 35.7606 26.9221 36.2532C25.8213 37.4811 24.8186 38.4481 23.4743 39.1695C23.097 39.3722 22.688 39.4636 22.2847 39.4636L22.2796 39.4687L22.2801 39.4641Z" fill="#05408C"></path><path d="M24.9195 41.6493C24.1971 41.078 23.6232 40.2851 23.614 39.3462C23.613 38.9678 23.7187 38.5768 23.9372 38.2173C24.578 37.1646 25.8053 35.9132 26.6437 35.0294C27.3487 34.2952 28.3122 33.7479 29.3542 33.7418C29.6993 33.7418 30.0521 33.8066 30.3891 33.9496C31.3775 34.381 32.4002 35.3991 32.4252 36.7541C32.4257 37.1538 32.3226 37.571 32.0989 37.9692C31.2841 39.4023 30.1675 41.4297 28.6369 42.3115C28.2718 42.5157 27.8644 42.5999 27.457 42.5999C26.5635 42.5948 25.6496 42.217 24.9195 41.6503V41.6493Z" fill="#05408C"></path><path d="M28.412 43.1555C28.3624 42.9972 28.3425 42.8374 28.3425 42.6776C28.3502 42.0455 28.6249 41.4084 28.9741 40.7748C29.3289 40.1473 29.7757 39.5402 30.1897 39.0664C30.7672 38.3996 31.4891 38.0969 32.1548 38.1005C32.6608 38.1005 33.1254 38.2643 33.4986 38.5247C34.0383 38.8852 34.6423 39.6454 34.6275 40.9044C34.6264 41.3384 34.5636 41.8301 34.4232 42.3968C34.8153 42.6087 35.3657 42.8874 35.7823 43.0631L36.5553 43.3868L35.9054 43.9162C35.1069 44.5636 33.7626 45.502 32.0185 45.5071C31.8291 45.5071 31.6366 45.4953 31.4401 45.4719C30.4879 45.3549 29.8058 45.0935 29.3172 44.6677C28.8271 44.2491 28.5871 43.7079 28.4135 43.1616" fill="#05408C"></path><path d="M41.9617 43.6711C39.4079 43.1513 35.9647 40.2606 33.609 37.6624C33.5156 37.5592 33.5237 37.3999 33.6274 37.307C33.73 37.2141 33.8893 37.2217 33.9822 37.3259C36.2787 39.8823 39.7515 42.7337 42.0592 43.1784C42.196 43.2049 42.2843 43.3377 42.2568 43.473C42.2328 43.5935 42.1281 43.6757 42.0107 43.6757C41.9852 43.6706 41.9698 43.6706 41.9545 43.6706L41.9617 43.6711Z" fill="#05408C"></path><path d="M48.0987 41.5268C45.8839 41.0632 41.61 37.5782 38.4793 33.9149C38.3889 33.8087 38.4022 33.6505 38.5074 33.5611C38.6141 33.4702 38.7724 33.4835 38.8632 33.5892C41.9128 37.1978 46.2734 40.6701 48.1977 41.0336V41.0346C48.3345 41.0612 48.4218 41.1939 48.3953 41.3302C48.3713 41.4497 48.2656 41.5324 48.1492 41.5324C48.1237 41.5273 48.1084 41.5222 48.093 41.5222L48.0987 41.5268Z" fill="#05408C"></path><path d="M53.353 38.2439C51.6907 37.5235 48.4879 34.9069 47.449 33.8741C46.9292 33.3533 45.7458 31.9789 44.6409 30.5897C43.532 29.1877 42.5277 27.8454 42.3255 27.2195C42.2847 27.0862 42.3603 26.9463 42.493 26.906C42.6258 26.8657 42.7662 26.9407 42.806 27.074C42.9188 27.4855 43.942 28.9145 45.0335 30.2762C46.1276 31.6511 47.3183 33.0311 47.8048 33.5182C48.7769 34.4964 52.0399 37.1406 53.5516 37.7813C53.6793 37.837 53.739 37.984 53.6834 38.1117C53.6435 38.2071 53.5496 38.2643 53.4531 38.2643C53.4122 38.2643 53.3816 38.2541 53.3459 38.2388L53.353 38.2439Z" fill="#05408C"></path><path d="M56.268 33.4497C55.0228 32.2254 50.1694 27.1918 48.2206 25.0786C45.5382 24.7049 43.1661 23.282 41.4389 21.466C39.8455 19.7832 38.7825 17.7604 38.5727 15.831C38.3062 15.8764 37.9968 15.9183 37.6613 15.9576C37.0206 16.0306 36.3145 16.0837 35.7473 16.0837C35.5849 16.0822 35.4384 16.0796 35.3021 16.0704C34.9406 16.9562 34.2942 18.0054 33.5534 18.9745C32.6839 20.0936 31.7328 21.0825 30.8173 21.5022C30.2139 21.7682 29.492 21.9193 28.7634 21.9214C28.0895 21.9193 27.4048 21.7902 26.8161 21.4542C26.227 21.1229 25.7445 20.55 25.5755 19.7801L25.5632 19.726V19.6698C25.5688 18.9893 25.8114 18.2704 26.0707 17.5745C26.3326 16.8842 26.6221 16.2205 26.7462 15.7881C27.004 14.915 27.267 12.4097 27.3905 11.4606C27.4594 10.9506 27.6111 10.2705 28.0736 9.63181C28.5352 8.99106 29.3051 8.42179 30.4829 8.1078C32.5134 7.56304 35.4118 6.68437 36.9369 5.95938C37.8349 5.53715 38.7483 5.00465 40.0558 5.00414C40.9902 5.00414 42.0822 5.27422 43.4919 5.96245C46.6839 7.52372 52.688 9.46639 53.9266 9.69205L54.1283 9.73034L54.2457 9.89831C56.6392 13.3165 59.847 19.6657 61.8713 29.7022L61.928 29.9836L61.7146 30.1755C60.8022 30.9904 57.9942 32.907 56.8633 33.5329L56.535 33.7126L56.2593 33.4472L56.268 33.4497Z" fill="#05408C"></path><path d="M61.8324 29.5237C62.0249 30.3441 62.4369 32.6386 61.8503 32.7432C61.2631 32.8479 60.3697 31.0992 60.579 30.7219C60.7883 30.3441 61.8298 29.5221 61.8298 29.5221L61.8324 29.5237Z" fill="#05408C"></path><path d="M34.4213 42.3997C34.4341 42.4069 34.4504 42.4145 34.4637 42.4222C34.4494 42.414 34.4356 42.4069 34.4213 42.3987V42.4038V42.3997ZM57.769 33.5978C57.6056 33.3624 57.382 33.125 57.0721 32.8273C56.9016 32.931 56.7479 33.0213 56.6202 33.0913C55.3628 31.8547 50.3129 26.6149 48.4682 24.6038C48.216 24.5732 47.9684 24.5252 47.7213 24.4752C48.798 25.7056 49.7834 26.7972 50.4594 27.4736C52.1279 29.1416 55.1769 32.4219 56.2751 33.4574C56.6264 33.7861 56.8377 34.0174 56.9393 34.167C57.0399 34.3238 57.0389 34.3559 57.044 34.434C57.0461 34.5116 57.0129 34.6684 56.949 34.9191C56.8474 35.3423 56.7555 35.9417 56.3017 36.4809C55.8498 37.0077 55.0263 37.5306 53.2291 37.5969L52.7865 37.6117L52.7457 38.0523C52.6451 39.1184 52.4373 39.6611 52.2382 39.9685C52.0375 40.2748 51.8272 40.3973 51.5142 40.6352C51.2232 40.8578 50.6279 41.1596 49.5817 41.1601C49.137 41.1601 48.6107 41.1044 47.9944 40.962L47.5696 40.8645L47.4119 41.2709C47.2914 41.6063 46.8145 42.1485 46.0834 42.556C45.3533 42.971 44.3833 43.2774 43.2784 43.2768C42.8664 43.2768 42.437 43.2345 41.9913 43.14L41.6671 43.0721L41.4767 43.3417C41.1387 43.8313 40.3749 44.3939 39.5958 44.3817C39.4421 44.3807 39.2859 44.3623 39.124 44.3194C38.5502 44.1693 37.5628 43.8221 36.5442 43.3984L35.9075 43.9171C35.8304 43.9799 35.7432 44.0473 35.6553 44.1142C36.8781 44.6502 38.1213 45.0898 38.8662 45.292C39.1133 45.3574 39.3579 45.388 39.5963 45.388C40.6802 45.3773 41.5527 44.7993 42.0924 44.1836C42.4983 44.2515 42.895 44.2826 43.2789 44.2826C44.5701 44.2821 45.7051 43.9293 46.5817 43.4321C47.2837 43.0272 47.8264 42.5468 48.1522 42.0234C48.6786 42.1235 49.1544 42.1664 49.5823 42.1664C50.8249 42.1674 51.6546 41.7978 52.1279 41.4322C52.3602 41.2515 52.7579 41.0171 53.0821 40.5168C53.3624 40.0818 53.5758 39.486 53.6973 38.5787C55.4133 38.4465 56.4645 37.8532 57.0695 37.1303C57.7215 36.3593 57.8395 35.4929 57.9252 35.1621C57.9839 34.9196 58.0467 34.7046 58.0498 34.4345C58.0498 34.1384 57.9426 33.8372 57.7639 33.5819L57.769 33.5978ZM33.6249 6.48728C31.4703 6.37139 29.1626 6.28715 27.6917 6.24528C24.7468 6.1687 20.5689 6.2269 18.1351 5.27318L17.5883 5.06181L17.4627 5.63465C16.0327 12.1672 12.9658 19.3129 10.5187 24.5798L10.3706 24.8994L10.6192 25.147C12.0626 26.5899 13.5651 27.8101 14.985 28.8455C15.1872 28.5969 15.4215 28.3503 15.6875 28.1129C14.3494 27.1433 12.9402 26.0114 11.5801 24.6819C13.944 19.5672 16.8444 12.7788 18.321 6.39998C21.0703 7.25567 24.9276 7.16479 27.6631 7.24954C29.1258 7.29141 31.429 7.37565 33.5707 7.49053C33.7857 7.50176 33.9991 7.51401 34.2099 7.52575C35.0605 7.2475 35.8738 6.95801 36.5493 6.6767C35.6814 6.60011 34.6756 6.53885 33.6238 6.48269L33.6249 6.48728Z" fill="#05408C"></path><path d="M0.428864 24.5814C0.426822 24.9205 0.142955 25.1931 0 25.4948C0.825567 25.8093 1.86301 26.2111 2.8831 26.6124C4.71191 27.3303 6.52796 28.0655 6.91394 28.26C7.24018 28.4239 7.57102 28.5056 7.88603 28.5056H7.88909C8.62225 28.5046 9.18642 28.0849 9.54738 27.6167L9.55555 27.606L9.56423 27.5937C13.737 21.5365 17.9138 7.49572 18.187 6.50167C18.2774 6.16113 18.3254 5.81038 18.3254 5.46678C18.3197 4.74485 18.1288 3.97494 17.4232 3.59662C17.2144 3.4945 16.7396 3.30713 16.0554 3.04266C14.026 2.26356 10.3689 0.925901 9.06848 0.49295C9.16651 7.10974 0.435503 24.147 0.43295 24.5707L0.428864 24.5814Z" fill="#05408C"></path><path d="M61.9143 5.5939C65.8849 8.9702 71.1799 24.1403 71.9998 32.6273C71.0752 33.0112 70.097 33.3594 69.2745 33.485C68.765 33.5606 68.1559 33.5958 67.5187 33.5958C66.6993 33.5958 65.8344 33.5361 65.0844 33.4084C64.3313 33.2701 63.7105 33.1143 63.2663 32.7304C63.8524 32.6257 63.4807 30.2655 63.2882 29.4445C61.2639 19.408 58.0561 13.0587 55.6626 9.64056L55.5452 9.41744C55.7805 9.25407 56.0848 9.07742 56.4504 8.87677C56.9293 8.61384 57.4996 8.32486 58.077 8.04252C58.8071 7.69535 61.3395 5.85735 61.9215 5.59696L61.9143 5.5939Z" fill="#05408C"></path></svg>
