<svg
    width="48"
    height="48"
    viewBox="0 0 48 48"
    fill="none"
    xmlns="http://www.w3.org/2000/svg"
>
    <path
        d="M32.7031 0.774414V9.20967H41.1384L32.7031 0.774414Z"
        fill="#05408C"
    />
    <path
        d="M21.8803 7.02623L20.4227 6.51441C20.3221 6.48033 20.2117 6.47964 20.1096 6.5189C19.7943 6.63834 19.3762 6.7941 19.1131 6.87798C18.915 6.94146 18.7102 6.9733 18.5022 6.9733H17.1814C17.1102 6.99058 16.9813 7.03414 16.8524 7.13619C16.8399 7.14615 16.8286 7.16412 16.8161 7.17535C16.7646 7.22105 16.7125 7.26959 16.6663 7.33765C16.6086 7.42281 16.5576 7.52672 16.5215 7.65445V9.76158V10.2704C16.5215 10.2704 16.5843 12.007 17.6397 12.7056C17.6518 12.7138 17.6604 12.7204 17.6721 12.7283C17.673 12.7289 17.6742 12.7292 17.6752 12.7298C17.6829 12.735 17.6901 12.741 17.6978 12.7462C17.8141 12.8266 17.9117 12.8972 18.0025 12.9687C18.6611 13.4858 19.1623 13.6726 19.2841 13.6688C19.331 13.668 19.3702 13.6696 19.4126 13.6764C19.4549 13.6797 19.9274 13.7176 20.4874 13.3281C20.5676 13.2721 20.6496 13.2079 20.7326 13.1329C20.911 12.9717 21.1 12.8252 21.2966 12.689C21.3025 12.6853 21.3585 12.646 21.3646 12.6421C21.637 12.4586 22.3062 11.8358 22.4617 10.1634V7.65152C22.439 7.55386 22.3278 7.19107 21.8803 7.02623Z"
        fill="#05408C"
    />
    <path
        d="M17.8202 15.7718L17.1582 15.3295L17.9412 16.7535L18.0992 16.5373L18.1022 16.5335L18.191 16.4129L18.3848 16.1492L17.8202 15.7718Z"
        fill="#05408C"
    />
    <path
        d="M22.5707 5.15803C22.3446 5.10354 22.1541 4.95012 22.0536 4.74065C21.953 4.53049 21.9516 4.28704 22.0506 4.0761C22.0528 4.07014 22.056 4.05266 22.0589 4.03528C22.0423 4.03381 22.0112 4.02395 21.9629 4.01184H17.8129C16.7053 4.01184 15.8019 4.90471 15.7852 6.00852C15.8023 5.99338 15.8206 5.98352 15.838 5.96907C15.8982 5.91887 15.9589 5.87522 16.0207 5.83284C16.0625 5.80422 16.103 5.77385 16.145 5.74875C16.212 5.70833 16.2777 5.67541 16.3442 5.64329C16.381 5.62551 16.4174 5.60491 16.4534 5.58958C16.527 5.55833 16.5968 5.53479 16.6664 5.51282C16.6931 5.50442 16.721 5.4926 16.7469 5.48538C16.8402 5.45969 16.9285 5.44104 17.0076 5.43079C17.0401 5.42708 17.0734 5.42473 17.1067 5.42473H18.5017C18.5493 5.42473 18.5962 5.41721 18.6415 5.40286C18.8826 5.32571 19.2675 5.18206 19.5594 5.07102C19.6724 5.02815 19.7884 4.99651 19.9058 4.97483C19.9354 4.96936 19.9656 4.96985 19.9954 4.96575C20.084 4.95344 20.1726 4.94231 20.2616 4.94192C20.265 4.94192 20.2682 4.94104 20.2715 4.94104C20.3343 4.94104 20.3964 4.9509 20.4589 4.95676C20.5063 4.96116 20.5538 4.96077 20.6009 4.96858C20.7138 4.98733 20.8254 5.01526 20.9346 5.05374L22.4028 5.56936C22.5562 5.62571 22.694 5.69368 22.8217 5.76799C22.8693 5.79583 22.9092 5.82776 22.9534 5.85735C23.0278 5.90764 23.1018 5.95754 23.167 6.01233C23.179 6.02249 23.1947 6.03079 23.2065 6.04104V5.84143C23.1786 5.7137 23.0479 5.27219 22.5707 5.15803Z"
        fill="#05408C"
    />
    <path
        d="M27.3187 17.88C27.2545 17.4945 26.9869 17.1723 26.6187 17.0393L23.3049 15.8401L21.8079 18.5628C21.681 18.7949 21.4443 18.9455 21.1804 18.9627C21.1631 18.9635 21.1464 18.9643 21.1298 18.9643C20.8841 18.9643 20.652 18.8478 20.506 18.6483L19.4891 17.2635L19.3878 17.4007C19.3872 17.4019 19.3861 17.4032 19.3854 17.4043L19.3855 17.4045L19.3491 17.4536L19.3493 17.4537L18.473 18.6483C18.3264 18.8479 18.0942 18.9643 17.8485 18.9643C17.8319 18.9643 17.8152 18.9635 17.7979 18.9627C17.5349 18.9455 17.2974 18.7949 17.1704 18.5628L15.6729 15.8401L12.3589 17.0393C11.9915 17.1723 11.7231 17.4945 11.6588 17.88L11.252 20.3372L11.3147 20.4105H27.6636L27.7256 20.3372L27.3187 17.88Z"
        fill="#05408C"
    />
    <path
        d="M31.9292 10.758C31.5013 10.758 31.155 10.4117 31.155 9.98389V0H6.08789V48H41.913V10.758H31.9292ZM9.7248 20.0839L10.1316 17.6274C10.2866 16.6899 10.9384 15.9066 11.8327 15.5831L15.7687 14.1587C15.7687 14.1587 15.7696 14.1587 15.7701 14.1585C15.7701 14.1585 15.7707 14.1581 15.771 14.158L16.4674 13.9087V13.7521C15.0402 12.5169 14.9748 10.3841 14.9727 10.287V9.79746C14.9564 9.54726 14.8835 9.33779 14.7534 9.17637C14.4199 8.76123 14.237 8.2373 14.237 7.70049V6.03877C14.237 4.06699 15.8413 2.46338 17.8131 2.46338H22.0462C22.0961 2.46338 22.1452 2.46797 22.1936 2.47773C22.9512 2.62441 23.2959 3.02207 23.4524 3.3291C23.5561 3.53398 23.5998 3.73809 23.6089 3.92637C24.3763 4.38682 24.687 5.19277 24.749 5.67803C24.7527 5.71055 24.7551 5.74307 24.7551 5.77559V8.03613C24.7551 8.38467 24.6567 8.72715 24.47 9.02656C24.117 9.59209 24.0021 10.3156 24.0013 10.3231C23.9993 10.3362 23.9916 10.3465 23.989 10.3592C23.7892 12.2374 23.0727 13.216 22.5111 13.7042V13.9087L23.2067 14.1578L23.2075 14.1583C23.208 14.1585 23.2084 14.1583 23.209 14.1585L27.145 15.5829C28.0394 15.9058 28.6911 16.689 28.8461 17.6272L29.2528 20.0844C29.3308 20.5517 29.1992 21.0279 28.893 21.3893C28.586 21.7515 28.1385 21.9586 27.6637 21.9586H11.3148C10.84 21.9586 10.3917 21.7507 10.0848 21.3893C9.77852 21.0274 9.64697 20.5519 9.7248 20.0839ZM32.5567 43.699H10.4771C10.0492 43.699 9.70293 43.3527 9.70293 42.9248C9.70293 42.497 10.0492 42.1507 10.4771 42.1507H32.5567C32.9847 42.1507 33.3309 42.497 33.3309 42.9248C33.331 43.3527 32.9848 43.699 32.5567 43.699ZM37.524 39.5687H10.4771C10.0492 39.5687 9.70293 39.2225 9.70293 38.7946C9.70293 38.3667 10.0492 38.0204 10.4771 38.0204H37.524C37.9519 38.0204 38.2981 38.3667 38.2981 38.7946C38.2981 39.2225 37.9519 39.5687 37.524 39.5687ZM37.524 35.4377H10.4771C10.0492 35.4377 9.70293 35.0914 9.70293 34.6635C9.70293 34.2356 10.0492 33.8894 10.4771 33.8894H37.524C37.9519 33.8894 38.2981 34.2356 38.2981 34.6635C38.2981 35.0914 37.9519 35.4377 37.524 35.4377ZM37.524 31.3074H10.4771C10.0492 31.3074 9.70293 30.9611 9.70293 30.5333C9.70293 30.1054 10.0492 29.7591 10.4771 29.7591H37.524C37.9519 29.7591 38.2981 30.1054 38.2981 30.5333C38.2981 30.9611 37.9519 31.3074 37.524 31.3074ZM37.524 27.1771H10.4771C10.0492 27.1771 9.70293 26.8309 9.70293 26.4029C9.70293 25.975 10.0492 25.6287 10.4771 25.6287H37.524C37.9519 25.6287 38.2981 25.975 38.2981 26.4029C38.2981 26.8309 37.9519 27.1771 37.524 27.1771Z"
        fill="#05408C"
    />
    <path
        d="M20.5918 16.1494L21.0355 16.7542L21.8181 15.3298L20.5918 16.1494Z"
        fill="#05408C"
    />
</svg>
