<svg
    width="48"
    height="48"
    viewBox="0 0 48 48"
    fill="none"
    xmlns="http://www.w3.org/2000/svg"
>
    <g clip-path="url(#clip0_578_405)">
        <path
            d="M46.7234 43.5319H2.55319V3.19151C2.55319 2.48645 1.98179 1.91492 1.2766 1.91492C0.571532 1.91492 0 2.48645 0 3.19151V44.8085C0 45.5135 0.571532 46.0851 1.2766 46.0851H46.7234C47.4285 46.0851 48 45.5135 48 44.8085C48 44.1035 47.4285 43.5319 46.7234 43.5319Z"
            fill="#05408C"
        />
        <path
            d="M3.67188 40.3564C3.67188 40.427 3.72894 40.4841 3.79953 40.4841H44.2017C44.2723 40.4841 44.3294 40.427 44.3294 40.3564C44.3294 40.286 44.2723 40.2288 44.2017 40.2288H42.2911C42.4242 40.1228 42.5113 39.9612 42.5113 39.778V32.8245H44.2017C44.2723 32.8245 44.3294 32.7674 44.3294 32.6968C44.3294 32.6264 44.2723 32.5692 44.2017 32.5692H42.5113V25.1649H44.2017C44.2723 25.1649 44.3294 25.1079 44.3294 25.0373C44.3294 24.9668 44.2723 24.9096 44.2017 24.9096H42.5113V19.0891C42.5113 18.7697 42.2523 18.5107 41.9329 18.5107H33.8344C33.515 18.5107 33.256 18.7697 33.256 19.0891V24.9096H17.5014L24.3432 23.004C24.5036 22.9592 24.6537 22.8838 24.785 22.7814L31.5605 17.5054H44.2017C44.2723 17.5054 44.3294 17.4483 44.3294 17.3777C44.3294 17.3072 44.2723 17.25 44.2017 17.25H37.0337C37.1828 17.1839 37.3034 17.0624 37.3666 16.9071L40.2327 9.84578H44.2019C44.2725 9.84578 44.3295 9.78872 44.3295 9.71812C44.3295 9.64766 44.2725 9.59047 44.2019 9.59047H40.2853C40.2853 9.45068 40.2397 9.31242 40.151 9.19855C40.0108 9.01868 39.7846 8.92651 39.5595 8.95855L35.0069 9.59047H3.79953C3.72894 9.59047 3.67188 9.64766 3.67188 9.71812C3.67188 9.78872 3.72894 9.84578 3.79953 9.84578H33.1676L31.9947 10.0086C31.7687 10.0398 31.5769 10.1893 31.4911 10.4006C31.4053 10.6119 31.4387 10.8529 31.5789 11.0329L33.1409 13.0389L27.733 17.2499H3.79953C3.72894 17.2499 3.67188 17.3071 3.67188 17.3776C3.67188 17.4482 3.72894 17.5052 3.79953 17.5052H27.4049L23.4152 20.612L8.21822 24.8446C8.15681 24.8617 8.09847 24.8845 8.04192 24.9096H3.79953C3.72894 24.9096 3.67188 24.9668 3.67188 25.0373C3.67188 25.1079 3.72894 25.1649 3.79953 25.1649H7.66532C7.34579 25.4801 7.20192 25.9541 7.33085 26.417C7.48813 26.9818 8.00119 27.3515 8.55996 27.3515C8.67345 27.3515 8.78873 27.3362 8.90311 27.3044L16.5846 25.1649H33.256V32.5692H28.6283V26.6529C28.6283 26.3335 28.3693 26.0745 28.0499 26.0745H19.9514C19.632 26.0745 19.373 26.3335 19.373 26.6529V32.5692H14.7453V30.3231C14.7453 30.0037 14.4863 29.7447 14.1669 29.7447H6.06843C5.74902 29.7447 5.49 30.0037 5.49 30.3231V32.5692H3.79953C3.72894 32.5692 3.67188 32.6264 3.67188 32.6968C3.67188 32.7674 3.72894 32.8245 3.79953 32.8245H5.49V39.778C5.49 39.9612 5.57707 40.1228 5.71022 40.2288H3.79953C3.72894 40.2288 3.67188 40.286 3.67188 40.3564ZM34.7094 15.0534L36.2714 17.0593C36.3374 17.1438 36.4226 17.2082 36.5173 17.25H31.8883L34.7094 15.0534ZM33.256 32.8245V39.778C33.256 39.9612 33.343 40.1228 33.4762 40.2288H28.4082C28.5414 40.1228 28.6284 39.9612 28.6284 39.778V32.8245H33.256ZM14.7453 39.778V32.8245H19.373V39.778C19.373 39.9612 19.46 40.1228 19.5932 40.2288H14.5252C14.6583 40.1228 14.7453 39.9612 14.7453 39.778Z"
            fill="#05408C"
        />
    </g>
    <defs>
        <clipPath id="clip0_578_405">
            <rect width="48" height="48" fill="white" />
        </clipPath>
    </defs>
</svg>
