<svg
    width="48"
    height="48"
    viewBox="0 0 48 48"
    fill="none"
    xmlns="http://www.w3.org/2000/svg"
>
    <g clip-path="url(#clip0_576_356)">
        <path
            d="M10 4V8H8C5.8 8 4 9.8 4 12V34C4 36.2 5.8 38 8 38H21.6C25.2 34.4 21.6 38 25.6 34H8V16H32V27.8C35.2 24.6 32.4 27.4 36 23.8V12C36 9.8 34.2 8 32 8H30V4H26V8H14V4H10ZM20 18.4L18.4 22.4L14 22.8L17.2 25.6L16.2 29.8L19.8 27.6L23.4 29.8L22.4 25.6L25.6 22.8L21.2 22.4L20 18.4ZM41 24C40.8 24 40.4 24.2 40.2 24.4L38.6 26L42.6 30L44.2 28.4C44.6 28 44.6 27.2 44.2 27L41.6 24.4C41.6 24 41.2 24 41 24ZM37.6 27L24.6 40V44H28.6L41.6 31L37.6 27Z"
            fill="#05408C"
        />
    </g>
    <defs>
        <clipPath id="clip0_576_356">
            <rect width="48" height="48" fill="white" />
        </clipPath>
    </defs>
</svg>
