<svg
    width="48"
    height="48"
    viewBox="0 0 48 48"
    fill="none"
    xmlns="http://www.w3.org/2000/svg"
>
    <path
        d="M37.9543 12.0572C37.9544 11.8469 37.9131 11.6386 37.8327 11.4443C37.7522 11.2499 37.6343 11.0734 37.4856 10.9247C37.3369 10.7759 37.1603 10.658 36.966 10.5776C36.7716 10.4971 36.5634 10.4558 36.353 10.4559H11.6462C11.2215 10.4559 10.8142 10.6246 10.5139 10.9249C10.2136 11.2252 10.0449 11.6325 10.0449 12.0572V36.7594C10.0449 37.184 10.2136 37.5913 10.5139 37.8916C10.8142 38.1919 11.2215 38.3606 11.6462 38.3606L36.353 38.3662C36.7777 38.3662 37.185 38.1975 37.4853 37.8973C37.7856 37.597 37.9543 37.1897 37.9543 36.765V12.0572ZM36.2668 36.6787H23.9996V34.1119C23.9991 34.0041 24.024 33.8978 24.0723 33.8015C24.1206 33.7052 24.191 33.6217 24.2777 33.5577C24.3644 33.4938 24.465 33.4512 24.5713 33.4334C24.6776 33.4157 24.7865 33.4233 24.8893 33.4556C25.0532 33.5077 25.2135 33.5704 25.3693 33.6431C25.7123 33.8225 26.0915 33.9215 26.4784 33.9327C26.8652 33.9439 27.2496 33.867 27.6023 33.7078C27.9551 33.5486 28.267 33.3113 28.5146 33.0138C28.7621 32.7163 28.9388 32.3664 29.0312 31.9905C29.1236 31.6147 29.1294 31.2228 29.048 30.8444C28.9667 30.466 28.8004 30.1111 28.5617 29.8065C28.323 29.5018 28.0182 29.2554 27.6702 29.0859C27.3223 28.9165 26.9404 28.8283 26.5534 28.8281C26.1259 28.8281 25.3693 29.1197 25.3693 29.1197C25.2138 29.1923 25.0538 29.255 24.8902 29.3072C24.7874 29.3397 24.6783 29.3474 24.5719 29.3298C24.4655 29.3121 24.3648 29.2696 24.278 29.2056C24.1912 29.1416 24.1207 29.058 24.0723 28.9616C24.0239 28.8652 23.999 28.7588 23.9996 28.6509V24.4106H19.7518C19.644 24.4102 19.5377 24.4353 19.4414 24.4837C19.3451 24.5322 19.2616 24.6026 19.1977 24.6894C19.1337 24.7762 19.0912 24.8768 19.0734 24.9831C19.0557 25.0894 19.0633 25.1984 19.0955 25.3012C19.1475 25.4649 19.2101 25.6249 19.283 25.7803C19.283 25.7803 19.5737 26.5369 19.5737 26.9644C19.5748 27.3522 19.4875 27.7352 19.3185 28.0843C19.1495 28.4334 18.9032 28.7394 18.5983 28.9791C18.2934 29.2188 17.938 29.3859 17.5588 29.4678C17.1797 29.5496 16.787 29.5441 16.4103 29.4515C16.0337 29.3589 15.6831 29.1817 15.3851 28.9335C15.0872 28.6852 14.8497 28.3723 14.6907 28.0186C14.5317 27.6648 14.4553 27.2795 14.4674 26.8918C14.4795 26.5042 14.5798 26.1244 14.7605 25.7812C14.8336 25.6256 14.8962 25.4652 14.948 25.3012C14.9802 25.1985 14.9876 25.0896 14.9698 24.9834C14.9519 24.8772 14.9093 24.7767 14.8454 24.6901C14.7815 24.6034 14.6981 24.533 14.6019 24.4847C14.5057 24.4363 14.3995 24.4112 14.2918 24.4116H11.7324V12.1434H23.9996V14.7037C23.9999 14.8114 23.9749 14.9177 23.9265 15.0138C23.8781 15.11 23.8078 15.1935 23.7211 15.2574C23.6345 15.3213 23.534 15.3639 23.4278 15.3817C23.3216 15.3995 23.2127 15.3921 23.1099 15.36C22.946 15.3079 22.7857 15.2453 22.6299 15.1725C22.287 14.9932 21.9077 14.8941 21.5209 14.8829C21.134 14.8717 20.7497 14.9486 20.3969 15.1078C20.0441 15.267 19.7322 15.5044 19.4846 15.8019C19.2371 16.0994 19.0604 16.4493 18.968 16.8251C18.8756 17.2009 18.8698 17.5928 18.9512 17.9712C19.0325 18.3496 19.1988 18.7045 19.4375 19.0091C19.6762 19.3138 19.9811 19.5602 20.329 19.7297C20.6769 19.8992 21.0588 19.9873 21.4459 19.9875C21.8734 19.9875 22.6299 19.6969 22.6299 19.6969C22.7853 19.624 22.9454 19.5613 23.109 19.5094C23.2118 19.4769 23.3209 19.4691 23.4273 19.4868C23.5337 19.5044 23.6344 19.547 23.7212 19.611C23.808 19.6749 23.8785 19.7585 23.9269 19.8549C23.9753 19.9513 24.0002 20.0578 23.9996 20.1656V24.4134H28.2521C28.3592 24.4128 28.4647 24.387 28.56 24.3382C28.6553 24.2894 28.7379 24.2188 28.801 24.1323C28.8641 24.0457 28.906 23.9456 28.9234 23.8399C28.9407 23.7342 28.933 23.6259 28.9009 23.5237C28.8488 23.3599 28.7862 23.1995 28.7134 23.0437C28.7134 23.0437 28.4227 22.2872 28.4227 21.8597C28.4223 21.4722 28.5101 21.0897 28.6794 20.7412C28.8487 20.3926 29.0951 20.0872 29.3999 19.848C29.7048 19.6088 30.06 19.4421 30.4388 19.3605C30.8176 19.2789 31.21 19.2846 31.5863 19.3771C31.9626 19.4697 32.3129 19.6466 32.6106 19.8945C32.9084 20.1425 33.1458 20.455 33.305 20.8083C33.4641 21.1616 33.5407 21.5464 33.5291 21.9338C33.5174 22.3211 33.4178 22.7006 33.2377 23.0437C33.1649 23.1995 33.1023 23.3599 33.0502 23.5237C33.0183 23.626 33.0108 23.7343 33.0282 23.84C33.0457 23.9457 33.0877 24.0458 33.1509 24.1323C33.2141 24.2188 33.2966 24.2893 33.392 24.3381C33.4873 24.3869 33.5928 24.4127 33.6999 24.4134H36.2649L36.2668 36.6787Z"
        fill="#05408C"
    />
</svg>
