<svg
    width="48"
    height="48"
    viewBox="0 0 48 48"
    fill="none"
    xmlns="http://www.w3.org/2000/svg"
>
    <path
        d="M46.3056 32.7L32.4606 8.7C32.3204 8.46244 32.1175 8.26815 31.874 8.13848C31.6305 8.0088 31.356 7.94878 31.0806 7.965L18.7356 8.7C18.5014 8.71318 18.2736 8.78112 18.0704 8.89835C17.8672 9.01558 17.6943 9.17883 17.5656 9.375L10.7556 19.725C10.624 19.953 10.5547 20.2117 10.5547 20.475C10.5547 20.7383 10.624 20.997 10.7556 21.225L24.6006 45.225C24.7988 45.5639 25.1219 45.8116 25.5006 45.915C25.6302 45.9295 25.7611 45.9295 25.8906 45.915C26.1548 45.9123 26.4135 45.8398 26.6406 45.705L45.7506 34.74C46.0937 34.5421 46.3447 34.2166 46.4486 33.8344C46.5526 33.4522 46.5012 33.0444 46.3056 32.7Z"
        fill="#9A9A9A"
    />
    <path
        d="M27.675 13.665L15.675 7.66497C15.4656 7.55947 15.2344 7.50452 15 7.50452C14.7656 7.50452 14.5344 7.55947 14.325 7.66497L2.325 13.665C2.07763 13.7896 1.8696 13.9803 1.72398 14.216C1.57837 14.4516 1.50084 14.723 1.5 15V45C1.5 45.3978 1.65804 45.7793 1.93934 46.0606C2.22064 46.3419 2.60218 46.5 3 46.5H27C27.3978 46.5 27.7794 46.3419 28.0607 46.0606C28.342 45.7793 28.5 45.3978 28.5 45V15C28.4992 14.723 28.4216 14.4516 28.276 14.216C28.1304 13.9803 27.9224 13.7896 27.675 13.665Z"
        fill="#05408C"
    />
    <path
        d="M15 22.5C17.4853 22.5 19.5 20.4853 19.5 18C19.5 15.5147 17.4853 13.5 15 13.5C12.5147 13.5 10.5 15.5147 10.5 18C10.5 20.4853 12.5147 22.5 15 22.5Z"
        fill="#9A9A9A"
    />
    <path
        d="M16.5 30H9C8.60218 30 8.22064 29.842 7.93934 29.5607C7.65804 29.2794 7.5 28.8978 7.5 28.5C7.5 28.1022 7.65804 27.7206 7.93934 27.4393C8.22064 27.158 8.60218 27 9 27H16.5C16.8978 27 17.2794 27.158 17.5607 27.4393C17.842 27.7206 18 28.1022 18 28.5C18 28.8978 17.842 29.2794 17.5607 29.5607C17.2794 29.842 16.8978 30 16.5 30Z"
        fill="#9A9A9A"
    />
    <path
        d="M21 35.25H9C8.60218 35.25 8.22064 35.092 7.93934 34.8107C7.65804 34.5294 7.5 34.1478 7.5 33.75C7.5 33.3522 7.65804 32.9706 7.93934 32.6893C8.22064 32.408 8.60218 32.25 9 32.25H21C21.3978 32.25 21.7794 32.408 22.0607 32.6893C22.342 32.9706 22.5 33.3522 22.5 33.75C22.5 34.1478 22.342 34.5294 22.0607 34.8107C21.7794 35.092 21.3978 35.25 21 35.25Z"
        fill="#9A9A9A"
    />
    <path
        d="M21 40.5H9C8.60218 40.5 8.22064 40.342 7.93934 40.0607C7.65804 39.7794 7.5 39.3978 7.5 39C7.5 38.6022 7.65804 38.2206 7.93934 37.9393C8.22064 37.658 8.60218 37.5 9 37.5H21C21.3978 37.5 21.7794 37.658 22.0607 37.9393C22.342 38.2206 22.5 38.6022 22.5 39C22.5 39.3978 22.342 39.7794 22.0607 40.0607C21.7794 40.342 21.3978 40.5 21 40.5Z"
        fill="#9A9A9A"
    />
    <path
        d="M15 16.5C14.6022 16.5 14.2206 16.342 13.9393 16.0607C13.658 15.7794 13.5 15.3978 13.5 15V3C13.5 2.60218 13.658 2.22064 13.9393 1.93934C14.2206 1.65804 14.6022 1.5 15 1.5C15.3978 1.5 15.7794 1.65804 16.0607 1.93934C16.342 2.22064 16.5 2.60218 16.5 3V15C16.5 15.3978 16.342 15.7794 16.0607 16.0607C15.7794 16.342 15.3978 16.5 15 16.5Z"
        fill="#9A9A9A"
    />
</svg>
